<svg width="50" height="50" viewBox="0 0 50 50" fill="none" xmlns="http://www.w3.org/2000/svg">
<path d="M42.3913 42.3913H0V32.9239L3.26087 29.663V0H39.1304V29.663L42.3913 32.9239V42.3913ZM1.08696 41.3043H41.3043V33.3804L38.0435 30.1196V1.08696H4.34783V30.1196L1.08696 33.3804V41.3043Z" fill="white"/>
<path d="M17.3913 29.3477H7.6087V15.2173H17.3913V29.3477ZM8.69565 28.2608H16.3043V16.3042H8.69565V28.2608Z" fill="white"/>
<path d="M26.087 29.3477H16.3043V15.2173H26.087V29.3477ZM17.3913 28.2608H25V16.3042H17.3913V28.2608Z" fill="white"/>
<path d="M34.7826 29.3477H25V15.2173H34.7826V29.3477ZM26.087 28.2608H33.6957V16.3042H26.087V28.2608Z" fill="white"/>
<path d="M34.7826 11.9566H7.6087V4.3479H34.7826V11.9566ZM8.69565 10.8696H33.6957V5.43486H8.69565V10.8696Z" fill="white"/>
<path d="M38.0435 50H3.26087V44.0217H4.34783V48.913H36.9565V44.0217H38.0435V50Z" fill="white"/>
<path d="M47.2826 26.087H38.0435V18.4783H47.2826C48.7826 18.4783 50 19.6957 50 21.1957V23.3696C50 24.8696 48.7826 26.087 47.2826 26.087ZM39.1304 25H47.2826C48.1848 25 48.913 24.2717 48.913 23.3696V21.1957C48.913 20.2935 48.1848 19.5652 47.2826 19.5652H39.1304V25Z" fill="white"/>
<path d="M46.1957 9.78252C44.0978 9.78252 42.3913 8.076 42.3913 5.97818C42.3913 3.88035 44.0978 2.17383 46.1957 2.17383C48.2935 2.17383 50 3.88035 50 5.97818C50 8.076 48.2935 9.78252 46.1957 9.78252ZM46.1957 3.26078C44.6957 3.26078 43.4783 4.47818 43.4783 5.97818C43.4783 7.47818 44.6957 8.69557 46.1957 8.69557C47.6957 8.69557 48.913 7.47818 48.913 5.97818C48.913 4.47818 47.6957 3.26078 46.1957 3.26078Z" fill="white"/>
<path d="M46.7391 9.23901H45.6522V19.0216H46.7391V9.23901Z" fill="white"/>
</svg>
