<svg width="54" height="50" viewBox="0 0 54 50" fill="none" xmlns="http://www.w3.org/2000/svg">
<path d="M46.2699 41.595L42.7484 31.7422C42.6994 31.5827 42.6994 31.4232 42.773 31.276C42.8466 31.1287 42.9693 31.0183 43.1288 30.9569L49.4969 28.7361L49.9018 29.8895L44.1227 31.9017L47.4356 41.1656L46.2699 41.595Z" fill="white"/>
<path d="M19.5462 49.9999C19.2272 49.9999 18.9204 49.914 18.6382 49.7545C18.1965 49.5091 17.8898 49.0919 17.7671 48.6134L8.52777 12.2575C8.40507 11.7789 8.47869 11.2881 8.72409 10.871C8.98176 10.4538 9.3744 10.147 9.85293 10.0243L46.1966 0.785055C46.6874 0.662355 47.1904 0.735975 47.6199 1.00591C48.0493 1.27585 48.3438 1.69303 48.4543 2.18383L53.988 28.1348L47.2886 41.9017L20.0738 49.914C19.902 49.9754 19.718 49.9999 19.5462 49.9999ZM46.6628 1.9507C46.6138 1.9507 46.5647 1.9507 46.5156 1.97524L10.1597 11.2145C10.0002 11.2513 9.8652 11.3495 9.77931 11.4967C9.70569 11.6317 9.68115 11.8035 9.71796 11.963L18.9572 48.3189C18.9941 48.4784 19.1045 48.6134 19.2517 48.6993C19.399 48.7852 19.5707 48.7974 19.7303 48.7484L46.4174 40.8833L52.6997 27.9753L47.2641 2.4415C47.2273 2.28199 47.1291 2.13475 46.9819 2.04886C46.8837 1.98751 46.7733 1.9507 46.6628 1.9507Z" fill="white"/>
<path d="M12.8835 41.7179H1.8405C0.822088 41.7179 0 40.8958 0 39.8774V1.8405C0 0.822088 0.822088 0 1.8405 0H30.0614V1.227H1.8405C1.49694 1.227 1.227 1.49694 1.227 1.8405V39.8774C1.227 40.221 1.49694 40.4909 1.8405 40.4909H12.8835V41.7179Z" fill="white"/>
<path d="M41.3074 13.5281L18.857 19.8132L19.1878 20.9948L41.6382 14.7097L41.3074 13.5281Z" fill="white"/>
<path d="M31.1411 22.7428L20.5067 25.72L20.8375 26.9016L31.4719 23.9244L31.1411 22.7428Z" fill="white"/>
</svg>
