<svg width="56" height="50" viewBox="0 0 56 50" fill="none" xmlns="http://www.w3.org/2000/svg">
<path d="M50.5952 50.0001H5.35714C2.40476 50.0001 0 47.5953 0 44.6429V42.262C0 41.9287 0.261905 41.6667 0.595238 41.6667H55.3571C55.6905 41.6667 55.9524 41.9287 55.9524 42.262V44.6429C55.9524 47.5953 53.5476 50.0001 50.5952 50.0001ZM1.19048 42.8572V44.6429C1.19048 46.9406 3.05952 48.8096 5.35714 48.8096H50.5952C52.8929 48.8096 54.7619 46.9406 54.7619 44.6429V42.8572H1.19048Z" fill="white"/>
<path d="M31.5476 45.238H24.4048V46.4285H31.5476V45.238Z" fill="white"/>
<path d="M4.76192 41.0715H3.57144V14.881C3.57144 13.2381 4.90478 11.9048 6.54763 11.9048H10.1191V13.0953H6.54763C5.55954 13.0953 4.76192 13.8929 4.76192 14.881V41.0715Z" fill="white"/>
<path d="M52.3809 41.0715H51.1905V14.881C51.1905 13.8929 50.3929 13.0953 49.4048 13.0953H44.6429V11.9048H49.4048C51.0476 11.9048 52.3809 13.2381 52.3809 14.881V41.0715Z" fill="white"/>
<path d="M39.881 36.9048H14.881C13.8929 36.9048 13.0953 36.1071 13.0953 35.119V1.78571C13.0953 0.797619 13.8929 0 14.881 0H39.881C40.8691 0 41.6667 0.797619 41.6667 1.78571V35.119C41.6667 36.1071 40.8691 36.9048 39.881 36.9048ZM14.881 1.19048C14.5477 1.19048 14.2858 1.45238 14.2858 1.78571V35.119C14.2858 35.4524 14.5477 35.7143 14.881 35.7143H39.881C40.2143 35.7143 40.4762 35.4524 40.4762 35.119V1.78571C40.4762 1.45238 40.2143 1.19048 39.881 1.19048H14.881Z" fill="white"/>
<path d="M30.3571 27.3811C30.3095 27.3811 30.2619 27.3811 30.2262 27.3692L29.9047 27.2859C29.3095 27.1311 28.2143 26.8573 27.3928 26.8573C26.5714 26.8573 25.4643 27.1311 24.8809 27.2859L24.5595 27.3692C24.2381 27.4406 23.9167 27.2501 23.8452 26.9287C23.7738 26.6073 23.9643 26.2859 24.2857 26.2144L24.5833 26.143C25.2262 25.9763 26.4167 25.6787 27.3928 25.6787C28.369 25.6787 29.5595 25.9882 30.2024 26.143L30.5 26.2144C30.8214 26.2859 31.0238 26.6073 30.9405 26.9287C30.869 27.1906 30.6309 27.3811 30.3571 27.3811Z" fill="white"/>
<path d="M30 23.6191C29.0833 23.6191 28.0952 23.4405 27.381 23C26.0357 23.8095 23.75 23.75 22.7143 23.2381C21.0952 22.4405 20.2381 21.0238 20.2381 19.1429C20.2381 16.9643 22.3571 15.2738 24.2143 13.7857C25.3691 12.8691 26.5595 11.9167 26.8095 11.131C26.9643 10.6429 27.7857 10.6429 27.9405 11.131C28.1905 11.9048 29.381 12.8572 30.5357 13.7857C32.4048 15.2738 34.5119 16.9643 34.5119 19.1429C34.5119 21.0238 33.6548 22.4524 32.0357 23.2381C31.5595 23.4762 30.8095 23.6191 30 23.6191ZM27.381 21.6667C27.5238 21.6667 27.6667 21.7143 27.7857 21.8214C28.5714 22.5357 30.7262 22.5595 31.5238 22.1667C32.75 21.5714 33.3333 20.5714 33.3333 19.131C33.3333 17.5238 31.4524 16.0238 29.7976 14.7024C28.8571 13.9524 27.9643 13.2381 27.381 12.5C26.7976 13.2381 25.8929 13.9643 24.9643 14.7024C23.3095 16.0357 21.4286 17.5357 21.4286 19.1429C21.4286 20.5833 22.0238 21.5714 23.2381 22.1786C24.0357 22.5714 26.1905 22.5476 26.9762 21.8333C27.0952 21.7262 27.2381 21.6667 27.381 21.6667Z" fill="white"/>
</svg>
