<svg width="64" height="50" viewBox="0 0 64 50" fill="none" xmlns="http://www.w3.org/2000/svg">
<path d="M14.8648 31.7566H13.5135C13.5135 28.8648 14.5405 24.8918 17.2973 21.9999C16.8919 21.9593 16.4865 21.8918 16.1081 21.8107C15.4324 21.6891 14.7973 21.581 14.2297 21.608C13.6216 21.6485 13.2432 21.9593 12.8378 22.2972C12.4459 22.635 12.0405 22.9729 11.4865 22.9729H10.8108V19.5945H12.1621V21.1215C12.6216 20.7566 13.2297 20.3242 14.1486 20.2702C14.8784 20.2296 15.6216 20.3648 16.3378 20.4864C17.4459 20.6891 18.4865 20.8648 19.2162 20.3783L19.973 21.4999C16.2027 24.0404 14.8648 28.608 14.8648 31.7566Z" fill="white"/>
<path d="M31.0812 31.7567H29.7298C29.7298 28.8648 30.7568 24.8919 33.5136 22C33.1082 21.9594 32.7028 21.8919 32.3244 21.8108C31.6487 21.6892 31.0136 21.5811 30.446 21.6081C29.8379 21.6486 29.4595 21.9594 29.0541 22.2973C28.6622 22.6216 28.2703 22.9594 27.7028 22.9594H27.0271V19.5811H28.3785V21.1081C28.8379 20.7432 29.446 20.3108 30.3649 20.2567C31.0947 20.2162 31.8379 20.3513 32.5541 20.4729C33.6622 20.6756 34.7028 20.8513 35.4325 20.3648L36.1893 21.4865C32.419 24.0405 31.0812 28.6081 31.0812 31.7567Z" fill="white"/>
<path d="M47.2973 31.7567H45.946C45.946 28.8648 46.973 24.8919 49.7298 22C49.3244 21.9594 48.919 21.8919 48.5406 21.8108C47.8649 21.6892 47.2298 21.5811 46.6622 21.6081C46.0541 21.6486 45.6757 21.9594 45.2703 22.2973C44.8784 22.6216 44.4865 22.9594 43.919 22.9594H43.2433V19.5811H44.5946V21.1081C45.0541 20.7432 45.6622 20.3108 46.5811 20.2567C47.3109 20.2162 48.0541 20.3513 48.7703 20.4729C49.8784 20.6756 50.919 20.8513 51.6487 20.3648L52.4054 21.4865C48.6352 24.0405 47.2973 28.6081 47.2973 31.7567Z" fill="white"/>
<path d="M24.3243 12.8379H22.9729V37.1622H24.3243V12.8379Z" fill="white"/>
<path d="M40.5406 12.8379H39.1892V37.1622H40.5406V12.8379Z" fill="white"/>
<path d="M56.7567 40.5406H6.75671V9.45947H56.7567V40.5406ZM8.10807 39.1892H55.4054V10.8108H8.10807V39.1892Z" fill="white"/>
<path d="M58.7838 50H4.72973C2.12162 50 0 47.8784 0 45.2703V4.72973C0 2.12162 2.12162 0 4.72973 0H58.7838C61.3919 0 63.5135 2.12162 63.5135 4.72973V45.2703C63.5135 47.8784 61.3919 50 58.7838 50ZM4.72973 1.35135C2.86486 1.35135 1.35135 2.86486 1.35135 4.72973V45.2703C1.35135 47.1351 2.86486 48.6487 4.72973 48.6487H58.7838C60.6487 48.6487 62.1622 47.1351 62.1622 45.2703V4.72973C62.1622 2.86486 60.6487 1.35135 58.7838 1.35135H4.72973Z" fill="white"/>
</svg>
