<svg xmlns="http://www.w3.org/2000/svg" xmlns:xlink="http://www.w3.org/1999/xlink" xmlns:xodm="http://www.corel.com/coreldraw/odm/2003" xml:space="preserve" version="1.1" style="shape-rendering:geometricPrecision; text-rendering:geometricPrecision; image-rendering:optimizeQuality; fill-rule:evenodd; clip-rule:evenodd" viewBox="1312.74 8664.45 37226.87 3721.12">
 <defs>
  <style type="text/css">
   <![CDATA[
    .fil2 {fill:#434242}
    .fil1 {fill:#EE682C}
    .fil4 {fill:#434242;fill-rule:nonzero}
    .fil3 {fill:#5B5B5B;fill-rule:nonzero}
    .fil10 {fill:#727271;fill-rule:nonzero}
    .fil0 {fill:#92959B;fill-rule:nonzero}
    .fil14 {fill:#AE0D3E;fill-rule:nonzero}
    .fil5 {fill:#C5C6C6;fill-rule:nonzero}
    .fil9 {fill:#C8142F;fill-rule:nonzero}
    .fil13 {fill:#D1D1E5;fill-rule:nonzero}
    .fil8 {fill:#D25658;fill-rule:nonzero}
    .fil7 {fill:#DC132C;fill-rule:nonzero}
    .fil12 {fill:#EBECEC;fill-rule:nonzero}
    .fil6 {fill:#F91228;fill-rule:nonzero}
    .fil15 {fill:#FEFEFE;fill-rule:nonzero}
    .fil11 {fill:white;fill-rule:nonzero}
   ]]>
  </style>
 </defs>
 <g id="Слой_x0020_1">
  <metadata id="CorelCorpID_0Corel-Layer"/>
  <path class="fil0" d="M5986.61 8718.69l2639.48 0 0 847.73 -1721.91 0 0 460.9 1421.08 0 0 847.73 -1421.08 0 0 487.89 1743.34 0 0 842.17 -2660.91 0 0 -3486.41 0 0 0 0 0 -0.01zm3749.67 3486.42l-955.15 0 1443.04 -3486.41 761.74 0 1442.51 3486.41 -959.38 0 -204.26 -514.88 -1325.03 0 -203.46 514.88 0 0 -0.01 0zm869.16 -2177.79l-343.43 858.57 686.33 0 -342.9 -858.57zm4365.62 -498.47l-911.75 166.42c-17.99,-61.65 -59.8,-112.45 -126.21,-153.46 -65.62,-41.01 -142.08,-61.38 -228.07,-61.38 -89.43,0 -162.45,18.79 -219.87,56.62 -57.15,36.78 -85.99,85.99 -85.99,146.58 0,61.65 52.65,122.24 155.84,182.83 54.24,24.61 134.41,53.45 241.04,86.25l322.26 95.78c271.46,86.25 493.71,195.26 664.9,327.29 228.86,171.45 343.69,423.86 343.69,756.71 0,342.9 -122.24,616.74 -364.86,820.21 -243.68,203.99 -559.33,305.59 -949.59,305.59 -360.89,0 -672.31,-87.58 -933.19,-262.2 -268.02,-182.83 -436.03,-411.69 -504.3,-687.12l933.19 -176.48c21.43,85.46 79.64,157.43 174.63,216.69 94.46,59 206.64,88.37 335.49,88.37 110.6,0 203.2,-21.17 278.61,-64.03 74.61,-43.39 112.45,-96.57 112.45,-160.6 0,-96.84 -180.45,-200.82 -541.87,-311.68 -42.86,-13.76 -74.61,-24.61 -96.04,-31.75 -250.03,-82.02 -448.47,-168.28 -595.31,-257.7 -311.68,-182.83 -475.72,-466.46 -493.71,-852.75 0,-325.44 110.86,-587.9 332.05,-787.93 225.69,-203.99 515.14,-306.65 869.42,-306.65 322,0 600.87,81.23 836.35,241.83 240.24,160.87 390.26,368.3 450.85,622.56l-0.01 0zm1190.63 1228.19l-1281.64 -2038.35 1051.19 0 686.33 1179.78 724.16 -1179.78 1046.16 0 -1308.63 2016.92 0 1469.5 -917.58 0 0 -1448.06 0 0 0 0 0.01 -0.01zm2418.82 -2038.35l1652.32 0c372.27,0 684.74,116.42 939.01,348.46 250.03,228.6 375.44,518.85 375.44,869.16 0,218.02 -52.39,417.25 -155.84,597.69 -103.98,180.45 -246.86,324.64 -428.89,432.06l702.73 1239.04 -1019.18 0 -601.13 -1046.16 -546.89 0 0 1046.16 -917.58 0 0 -3486.41 0 0 0 0 0.01 0zm1652.32 847.73l-734.75 0 0 750.36 734.75 0c104.25,0 190.24,-35.19 260.09,-107.42 69.59,-71.44 104.78,-162.45 104.78,-273.05 0,-104.25 -35.19,-191.03 -104.78,-263.26 -69.85,-71.44 -155.84,-106.63 -260.09,-106.63l0 0zm3315.23 -901.97c521.49,0 957.79,172.24 1308.63,514.88 353.48,343.69 530.49,770.73 530.49,1282.44 0,510.91 -177.01,938.21 -530.49,1281.64 -350.84,343.69 -787.14,514.88 -1308.63,514.88 -526.52,0 -965.99,-171.19 -1319.48,-514.88 -350.84,-343.43 -526.26,-770.73 -526.26,-1281.64 0,-511.7 175.42,-938.74 526.26,-1282.44 353.48,-342.64 792.96,-514.88 1319.48,-514.88zm-885.56 1791.76c0,261.41 84.4,481.28 252.41,659.87 164.04,175.68 375.71,262.47 633.15,262.47 253.47,0 462.49,-86.78 627.33,-262.47 171.45,-175.42 257.44,-395.02 257.44,-659.87 0,-250.3 -85.99,-465.14 -257.44,-643.73 -168.28,-178.86 -377.3,-267.23 -627.33,-267.23 -257.44,0 -469.11,86.78 -633.15,262.2 -168.01,178.86 -252.41,395.29 -252.41,648.76l0 0zm4827.85 -1791.76c378.88,0 716.76,93.4 1013.62,279.66 300.04,186 523.88,434.45 670.72,745.33l-896.14 327.03c-74.61,-146.58 -181.24,-262.2 -319.09,-345.81 -137.58,-83.61 -294.22,-125.41 -469.11,-125.41 -257.44,0 -468.84,86.78 -632.88,262.2 -168.01,178.86 -252.68,395.29 -252.68,648.76 0,261.41 84.67,481.28 252.68,660.14 164.04,175.42 375.44,262.2 632.88,262.2 174.89,0 331.52,-41.8 469.11,-125.41 137.85,-84.4 244.48,-199.23 319.09,-346.08l896.14 327.29c-143.4,314.06 -365.65,564.09 -668.34,747.71 -301.63,184.68 -641.09,276.49 -1016,276.49 -526.26,0 -965.73,-171.45 -1320.01,-514.88 -350.31,-343.69 -525.73,-771 -525.73,-1281.64 0,-511.7 175.42,-939.01 525.73,-1282.44 354.28,-342.9 793.75,-515.14 1320.01,-515.14l0 0 0 0zm1946.81 3540.66l0 -3486.41 917.58 0 0 1255.18 975.78 -1255.18 1158.61 0 -1325.03 1699.68 1426.63 1786.73 -1158.61 0 -1077.38 -1352.02 0 1352.02 -917.58 0 0 0zm3346.98 -3486.42l2638.69 0 0 847.73 -1721.91 0 0 460.9 1421.87 0 0 847.73 -1421.87 0 0 487.89 1743.34 0 0 842.17 -2659.86 0 0 -3486.41 0 0 -0.26 0 0 -0.01zm3850.74 847.73l-986.37 0 0 -847.73 2891.1 0 0 847.73 -987.16 0 0 2638.69 -917.58 0 0 -2638.69 0.01 0z"/>
  <path class="fil1" d="M2046.7 11141.75c-59,-32.01 -131.23,12.17 -197.64,44.19 -241.04,114.83 -538.69,582.88 -321.47,478.1 -151.61,139.17 -267.23,376.24 -155.84,348.46 -62.97,123.83 -56.62,227.01 -53.98,363.27l-1.59 1.59 -3.44 3.18 5.03 0 0 5.03 2.38 -4.23 1.59 -0.79c137.05,4.23 239.45,11.38 364.86,-49.21 -30.16,111.65 208.23,-1.59 350.31,-150.81 -108.21,216.43 364.07,-75.41 482.07,-314.06 32.81,-66.41 78.58,-137.85 47.63,-197.64 -173.83,-196.06 -102.66,-120.65 -251.88,-271.46 -149.23,-150.81 -74.61,-78.58 -268.02,-255.85l0 0 0 0.26 -0.01 -0.03z"/>
  <path id="_1" class="fil2" d="M2031.09 11163.71c-38.63,-17.99 -92.6,8.2 -145.26,34.4l0 0 -25.4 12.44 0 0c-134.41,64.03 -288.66,244.21 -352.43,364.07 -14.82,26.99 -24.61,50.8 -28.05,68 -0.79,6.61 -5.56,9 -3.97,9.79 4.76,1.59 17.99,-1.59 40.22,-12.96l162.98 -78.85 -132.82 123.03c-82.02,74.61 -152.4,178.86 -181.24,250.83 -7.14,19.84 -11.38,36.25 -11.38,47.63 0,4.23 -1.59,5.82 -0.79,5.82 1.59,0.79 5.82,0 12.44,-1.59l57.15 -14.02 -26.99 52.39c-55.56,110.07 -53.98,205.05 -51.59,326.5l0 3.18 3.97 0c120.65,4.23 215.9,7.41 326.5,-46.57l52.39 -26.46 -14.55 56.62c-1.85,7.41 -2.65,10.85 -1.85,12.44l0 0c1.06,0.79 1.85,-0.79 5.82,-0.79 11.64,0 28.05,-4.23 47.63,-10.85l0 0c73.03,-26.99 177.01,-96.57 254.26,-177.01l124.62 -131.23 -82.02 161.66c-10.58,23.02 -14.82,35.19 -13.23,40.22 0.79,1.59 3.44,-2.65 9.79,-4.23 18.26,-2.38 41.01,-11.38 69.06,-26.19 120.39,-62.44 303.21,-213.25 368.83,-346.87l0 0 13.23 -25.4 0 -0.79c26.19,-51.59 53.98,-105.04 35.98,-145.26 -50.01,-55.56 -66.41,-74.61 -78.58,-88.37 -27.78,-31.22 -41.8,-48.42 -55.03,-61.65 -14.82,-15.61 -28.58,-29.37 -55.56,-57.41l0 0 -59.27 -59.8 0 0 -59 -59.8c-27.78,-28.05 -41.01,-42.86 -56.36,-56.62 -15.61,-14.82 -31.22,-28.84 -60.85,-55.83l0 0 -87.58 -80.43 -1.06 0 0 0 -0.01 -0.04zm15.61 -21.96c-59,-32.01 -131.23,12.17 -197.64,44.19 -241.04,114.83 -538.69,582.88 -321.47,478.1 -151.61,139.17 -267.23,376.24 -155.84,348.46 -62.97,123.83 -56.62,227.01 -53.98,363.27l-1.59 1.59 -3.44 3.18 5.03 0 0 5.03 2.38 -4.23 1.59 -0.79c137.05,4.23 239.45,11.38 364.86,-49.21 -30.16,111.65 208.23,-1.59 350.31,-150.81 -108.21,216.43 364.07,-75.41 482.07,-314.06 32.81,-66.41 78.58,-137.85 47.63,-197.64 -173.83,-196.06 -102.66,-120.65 -251.88,-271.46 -149.23,-150.81 -74.61,-78.58 -268.02,-255.85l0 0 0 0.26 -0.01 -0.03z"/>
  <path class="fil3" d="M2765.04 11566.4l-127.26 84.4c-58.21,37.84 -132.03,41.01 -192.62,8.2l0 0c-181.24,-97.63 -332.05,-242.62 -437.09,-419.89 -34.4,-59.8 -34.4,-133.61 1.59,-192.62l78.85 -131.23 676.28 651.14 0 0 0.26 0 -0.01 0z"/>
  <path class="fil4" d="M2700.22 11571.17l-80.43 52.65c-35.19,23.81 -76.99,31.22 -117.21,23.02 -32.01,-17.99 -63.24,-37.84 -93.66,-59 32.81,-1.85 66.41,-11.64 95.25,-30.43l76.99 -50.8c38.63,23.81 78.05,44.98 119.06,64.82l0 -0.26z"/>
  <path class="fil5" d="M2409.18 11587.57c-8.2,1.06 -15.61,0 -23.81,0 -166.42,-100.81 -213.25,-150.02 -349.51,-364.86 -29.37,-49.21 -29.37,-110.6 1.06,-159.81l49.21 -82.02c6.35,11.38 12.17,23.02 18.79,33.6l-17.99 30.43c-36.25,59 -36.25,133.61 -0.79,192.62 65.62,112.45 211.4,272.26 323.06,350.31l0 0 0 -0.26 -0.02 -0.01z"/>
  <path class="fil6" d="M1566.21 10929.29c85.2,-21.43 482.07,-127.26 637.91,33.6l141.82 -383.91c-9,-7.14 -17.99,-13.76 -27.78,-19.58l0 -0.79c-145.26,-91.02 -444.5,-123.03 -754.59,346.87 -2.38,3.18 -3.97,7.41 -6.35,10.58 -5.03,6.61 1.59,14.82 9,13.23l0 0 0 0 -0.01 0z"/>
  <path class="fil7" d="M2063.9 10857.85c-96.84,-21.17 -236.27,-21.17 -437.89,24.61 3.18,-3.97 6.61,-9 10.58,-12.96 93.4,-36.25 232.83,-65.62 337.08,-64.03 40.22,0.79 73.03,-5.82 103.98,-20.64 -6.35,28.84 -10.58,53.45 -13.76,73.03l0.01 -0.01z"/>
  <path class="fil4" d="M2223.7 10986.7c-12.17,11.38 -31.22,9.79 -42.6,-1.59 -52.39,-54.24 -200.03,-129.65 -602.72,-26.46l-3.97 1.85c-16.4,3.97 -32.81,-2.65 -42.6,-15.61 -10.05,-14.02 -10.85,-32.01 -1.85,-46.04 162.45,-249.24 337.87,-391.05 522.55,-420.69 162.19,-26.99 273.05,44.45 313,75.41 14.02,11.64 15.61,31.22 5.03,45.24 -10.58,12.96 -31.22,15.61 -44.19,4.76 -33.6,-26.19 -126.47,-85.99 -263.26,-62.97 -151.87,24.61 -305.86,143.4 -446.88,344.22 373.86,-86.78 537.9,-18.79 610.13,55.83 12.17,13.23 11.38,32.81 -1.06,44.98 -0.79,0.79 -0.79,0.79 -1.59,0.79l0 0.26 0.01 0.02z"/>
  <path class="fil8" d="M3106.88 11311.35c109.8,127.79 200.82,453.5 -299.24,807.77 -6.61,4.76 -15.61,-0.79 -14.02,-9 17.99,-85.46 101.6,-493.71 -65.62,-642.14l378.88 -156.63 0 0z"/>
  <path class="fil6" d="M2807.64 12119.12c-6.61,4.76 -15.61,-0.79 -14.02,-9 9,-43.66 35.98,-172.24 36.78,-307.71 1.06,-127 -20.37,-259.82 -100.81,-332.85 0,-0.79 -0.79,-1.59 -1.59,-1.59l2.38 -0.79 376.5 -155.84c31.22,36.25 60.59,87.84 75.41,150.81 39.42,162.45 -14.82,401.9 -374.65,656.96l0 0 0 0 0 0.01z"/>
  <path class="fil9" d="M3003.43 11686c-39.95,33.6 -87.58,67.2 -141.82,99.22 0,-68.79 -7.41,-137.58 -26.19,-198.44 65.62,-13.76 177.01,-42.6 319.09,-102.39 1.59,7.41 3.18,14.82 3.97,23.02 -35.19,59.8 -85.2,119.59 -155.05,178.59l0 0 0 0z"/>
  <path class="fil4" d="M2931.46 12064.09c-32.81,26.99 -68.26,54.24 -105.83,81.23 -14.02,9.79 -32.01,9.79 -46.04,0 -13.76,-9 -20.37,-25.4 -17.2,-41.8 23.81,-110.86 91.02,-482.07 -55.56,-612.51 -12.44,-11.64 -14.02,-31.22 -1.85,-44.45 11.64,-12.96 31.22,-13.76 44.45,-2.38 148.43,132.82 118,441.06 86.78,614.89 192.09,-146.58 303.48,-304.8 322.26,-458.26 19.05,-146.84 -53.18,-242.62 -75.41,-269.08 -11.38,-12.96 -9.79,-32.81 3.44,-44.98 12.96,-11.38 33.6,-9 44.98,4.23 33.6,39.16 110.6,150.02 90.22,318.03 -19.58,156.63 -117.21,309.03 -290.25,455.08l0 0 0 0 0.01 0z"/>
  <path class="fil6" d="M4731.95 8845.69c0,0 239.45,857.78 -570.71,1825.36 -691.09,823.91 -1396.47,895.35 -1396.47,895.35 -239.18,-104.25 -442.65,-275.43 -585.26,-491.07 -34.4,-51.06 -64.03,-104.25 -91.02,-160.07 0,0 11.38,-174.63 120.39,-440.27 42.86,-104.25 101.07,-222.25 179.65,-349.25 123.83,-198.44 296.86,-418.31 541.07,-639.5 14.02,-12.44 28.05,-24.61 41.8,-36.25 58.21,-51.59 116.42,-99.22 174.89,-142.61 848.52,-637.12 1585.65,-461.7 1585.65,-461.7l0 0 0 0 0.01 0.01z"/>
  <path class="fil10" d="M4595.16 9969.91c-256.65,-380.47 -591.34,-702.73 -981.6,-944.56 463.29,-214.84 845.34,-212.46 1018.38,-194.47 61.65,5.82 110.07,52.65 119.06,113.24 23.55,173.04 41.8,554.3 -155.84,1025.79l0 0z"/>
  <path class="fil11" d="M4720.58 8877.71c-15.61,-19.05 -35.98,-32.81 -59,-41.01 23.02,8.2 43.39,22.23 59,41.01z"/>
  <path class="fil12" d="M4752.59 8961.32c-13.23,-20.64 -32.81,-37.04 -55.03,-47.63 -1.59,-8.2 -2.38,-15.61 -3.97,-23.02l0 0c0,6.61 0,14.02 0,21.43 -12.44,-5.03 -25.4,-8.2 -38.63,-9.79 -160.6,-16.4 -500.86,-19.84 -918.37,150.81 -28.58,-14.02 -57.41,-28.58 -87.58,-43.39 0,0 0,0 0,0 0,0 0,0 -1.06,0 447.94,-199.23 815.18,-196.06 983.99,-178.86 10.05,0.79 20.64,3.44 29.63,5.82 23.02,8.2 43.39,22.23 59,41.01 15.61,18.79 26.19,41.01 30.43,66.41 0.79,5.82 1.59,11.38 1.59,17.2l0 0 0 0.01z"/>
  <path class="fil10" d="M4697.56 8913.69c-1.59,-0.79 -3.18,-1.59 -3.97,-1.59 0,-7.41 0,-14.82 0,-21.17l0 0c1.59,7.14 2.38,14.55 3.97,22.75l0 0 0 0.01zm-960.97 139.44c-3.97,1.59 -8.2,3.18 -13.23,5.03 -24.61,-16.4 -50.01,-32.81 -74.61,-48.42 0,0 0,0 0,0 30.43,14.55 59,29.37 87.84,43.39l0 0z"/>
  <path class="fil4" d="M3679.97 9030.11c358.25,231.25 663.31,524.14 907.79,873.39 168.8,-433.92 155.84,-782.37 131.23,-955.41 -6.61,-45.77 -43.39,-81.23 -89.43,-85.99 -173.83,-17.2 -522.29,-17.99 -949.59,168.01l0 0zm935.57 963.61c-4.76,3.97 -10.58,6.35 -17.2,7.41 -11.38,0.79 -23.02,-4.23 -29.37,-14.02 -255.85,-378.88 -583.14,-693.74 -971.81,-934.77 -9.79,-6.61 -15.61,-17.2 -14.82,-28.84 1.06,-11.38 7.41,-21.96 18.26,-26.99 464.08,-215.64 847.73,-216.43 1035.58,-197.64 75.41,8.2 135.2,65.62 145.79,141.02 26.46,186.27 40.22,569.12 -157.43,1042.19 -1.59,4.23 -4.76,8.2 -9,11.64l0 0z"/>
  <path class="fil4" d="M2769.8 11534.39c37.04,-5.82 199.23,-32.81 423.86,-137.05 236.27,-109.01 591.34,-327.03 942.98,-746.92 180.45,-215.64 323.06,-443.71 423.07,-677.33 -251.62,-368.04 -570.71,-674.69 -947.74,-911.75 -229.66,108.21 -451.91,259.82 -660.93,448.47 -405.87,368.3 -610.92,730.78 -710.14,971.02 -94.99,228.6 -116.42,391.85 -120.39,428.63 68,138.64 159.01,262.47 269.61,369.89 110.86,106.63 238.65,191.82 379.68,255.06l0 0 0 -0.02zm1021.82 -446.88c-219.08,183.62 -420.69,298.45 -574.15,369.09 -264.85,121.18 -441.85,141.02 -449.26,141.82 -5.03,0 -10.58,-0.79 -15.61,-3.44 -150.81,-65.62 -287.87,-156.63 -405.87,-270.4 -118.8,-114.04 -215.64,-246.86 -287.07,-395.29 -1.59,-5.03 -3.18,-9.79 -2.38,-15.61 0,-7.41 12.17,-185.47 123.83,-454.29 102.39,-246.86 311.68,-619.92 727.34,-996.16 218.02,-197.64 450.85,-355.07 691.89,-466.73 10.05,-4.76 21.43,-3.97 30.43,1.59 396.08,246.06 728.93,566.74 990.6,953.82 5.82,8.2 7.41,19.58 3.18,30.16 -102.39,244.48 -250.83,483.92 -439.47,709.35 -132.82,158.22 -266.44,288.66 -393.44,396.08l0 0 0 0 -0.02 0.01z"/>
  <path class="fil4" d="M2785.41 11591.01c-0.79,0.79 -1.59,0.79 -3.18,2.38l-127.26 83.61c-67.2,44.45 -153.99,48.42 -224.63,10.05 -186,-100.28 -341.84,-249.5 -449.26,-431.54 -41.01,-70.38 -40.22,-156.63 1.59,-225.43l78.58 -130.44c9.26,-15.61 28.84,-20.37 43.66,-11.38 14.55,9.79 19.58,28.58 10.58,43.39l-78.58 131.23c-30.43,49.21 -30.43,110.6 -1.06,159.81 101.07,172.24 247.65,313.27 424.13,408.52 50.8,26.99 112.18,24.61 159.81,-7.41l127.79 -83.61c14.82,-9.79 34.66,-5.82 43.66,9 9,14.02 6.35,31.22 -5.82,41.8l0 0 0 0 -0.01 0.02z"/>
  <path class="fil11" d="M2727.21 10945.69c-0.79,0 -2.38,0 -5.82,0 -26.99,0.79 -142.61,9 -253.21,66.41 0,0 0,0 0,0 110.6,-57.41 226.22,-65.62 253.21,-66.41 3.44,0 5.82,0 5.82,0l0 0z"/>
  <path class="fil13" d="M2468.18 11012.1c-30.43,14.82 -60.06,33.6 -87.84,57.41 -11.38,9 -21.17,18.79 -32.01,29.37 0,0 -0.79,0 -0.79,0.79 0,-0.79 0.79,-0.79 0.79,-0.79 10.85,-10.58 20.64,-20.37 32.01,-29.37 27.78,-23.81 57.41,-42.6 87.84,-57.41 0,0 0,0 0,0z"/>
  <path class="fil6" d="M3671.77 10513.63c-149.23,154.78 -395.29,159.01 -550.07,10.58 -155.05,-149.23 -160.07,-396.08 -10.85,-550.33 149.23,-154.78 395.29,-159.81 550.33,-11.38 155.05,149.23 159.81,396.08 10.58,551.13l0.01 0z"/>
  <path class="fil14" d="M3620.97 10517.6c-62.18,52.39 -140.23,82.02 -222.25,83.61 -6.61,0 -12.17,0 -17.99,0 15.61,-22.23 26.19,-45.77 33.6,-70.38 65.62,-11.64 128.06,-40.22 181.24,-85.46 10.58,-8.2 21.43,-17.99 31.22,-28.58 73.03,-75.41 109.01,-174.63 108.21,-272.26 9,29.63 14.02,60.59 14.02,91.81 1.59,96.04 -33.87,186.27 -99.22,255.06 -10.05,9.79 -19.05,17.99 -28.84,26.19l0 0 0 0 0.01 0.01z"/>
  <path class="fil4" d="M3162.71 9969.11c-10.85,8.2 -19.84,17.2 -28.84,26.19 -66.41,68.79 -101.6,159.01 -100.01,255.06 1.59,94.99 41.01,184.41 109.8,250.83 69.06,66.41 159.28,101.6 255.06,100.01 95.25,-2.38 184.68,-41.01 250.83,-109.8 65.62,-68.79 101.07,-159.01 99.22,-255.06 -1.59,-94.99 -39.95,-184.41 -109.8,-250.83 -68,-65.62 -159.01,-101.86 -254.26,-100.01 -82.81,1.59 -160.6,30.96 -222.25,83.61l0.26 0 -0.01 0zm498.48 596.9c-73.03,61.38 -164.84,96.84 -261.67,98.43 -112.18,1.59 -218.81,-40.22 -300.04,-117.21 -81.23,-78.85 -126.21,-182.83 -128.59,-296.07 -2.65,-112.45 39.16,-219.08 117.21,-299.24 77.79,-81.23 182.83,-127.26 295.01,-128.85 112.45,-2.38 219.08,39.42 300.3,117.21 80.96,78.05 127,182.83 128.59,295.28 2.65,112.18 -39.42,218.81 -117.21,299.24 -10.58,11.38 -22.23,22.23 -33.6,31.22l0 0 0 -0.01z"/>
  <path class="fil12" d="M3570.17 10408.59c-95.25,98.43 -251.62,101.6 -350.04,6.61 -98.43,-94.46 -101.86,-251.09 -7.41,-350.31 94.99,-98.43 251.62,-101.6 350.04,-6.35 99.22,94.99 101.6,251.62 7.41,350.04l0 0.01z"/>
  <path class="fil15" d="M3529.95 10402.77c-31.22,25.4 -68,41.8 -107.42,47.63 -0.79,-3.44 -0.79,-7.41 -1.59,-10.58 -0.79,-10.05 -2.38,-19.05 -5.03,-28.84 32.81,-9 63.24,-25.4 89.43,-47.63 7.41,-5.56 14.02,-11.38 19.84,-17.99 49.21,-50.8 71.97,-118 68.79,-183.62 8.2,22.23 12.96,46.04 13.76,71.44 1.06,57.41 -20.37,111.39 -60.59,153.19l0 0c-5.82,5.82 -11.38,10.85 -17.2,16.4l0 0 0 0 0.01 0z"/>
  <path class="fil5" d="M3549.53 10090.29c-85.2,-41.01 -190.24,-29.37 -264.85,33.87 -6.35,5.56 -12.96,11.38 -19.58,17.99 -14.82,15.61 -26.99,31.75 -36.78,49.21 -14.82,-7.41 -29.63,-14.02 -42.86,-19.05 9.26,-31.75 26.46,-60.59 50.01,-85.2 5.82,-5.82 11.64,-10.58 17.46,-15.61 83.61,-70.38 208.23,-67.2 288.4,9.79 2.65,2.65 5.82,5.82 8.2,9l0 0 0 0z"/>
  <path class="fil4" d="M3252.93 10071.51c-5.82,5.03 -11.64,9.79 -17.46,15.61 -39.95,41.8 -61.38,96.04 -59.8,154.25 0.79,57.41 24.61,111.39 65.62,150.81 41.8,40.22 96.84,61.38 154.25,60.59 57.41,-0.79 111.39,-24.61 151.61,-66.41l0 0c40.22,-41.8 61.65,-95.78 60.59,-153.19 -1.59,-58.21 -25.4,-112.45 -66.41,-151.87 -80.17,-76.99 -204.79,-80.17 -288.4,-9.79l0 0zm317.24 379.68c-48.42,41.01 -109.01,64.03 -173.04,64.82 -74.61,1.59 -145.26,-26.19 -199.23,-78.05 -54.24,-51.59 -84.4,-121.18 -85.2,-195.79 -1.59,-74.61 25.4,-145.26 77.79,-198.44 106.63,-111.65 283.63,-114.83 394.49,-8.2 110.6,106.63 114.83,283.63 7.41,395.29l0 0c-6.61,7.14 -14.02,13.76 -22.23,20.37l0 0 0.01 0z"/>
  <path class="fil1" d="M2046.7 11141.75c-59,-32.01 -131.23,12.17 -197.64,44.19 -241.04,114.83 -538.69,582.88 -321.47,478.1 -151.61,139.17 -267.23,376.24 -155.84,348.46 -62.97,123.83 -56.62,227.01 -53.98,363.27l-1.59 1.59 -3.44 3.18 5.03 0 0 5.03 2.38 -4.23 1.59 -0.79c137.05,4.23 239.45,11.38 364.86,-49.21 -30.16,111.65 208.23,-1.59 350.31,-150.81 -108.21,216.43 364.07,-75.41 482.07,-314.06 32.81,-66.41 78.58,-137.85 47.63,-197.64 -173.83,-196.06 -102.66,-120.65 -251.88,-271.46 -149.23,-150.81 -74.61,-78.58 -268.02,-255.85l0 0 0 0.26 -0.01 -0.03z"/>
  <path class="fil2" d="M2013.1 11193.34c-25.4,-8.2 -69.85,13.76 -112.45,35.19l-25.4 12.17c-128.85,61.65 -276.23,234.69 -337.87,350.31l-0.79 0.79 332.85 -160.87 -300.04 277.28c-76.2,70.38 -142.61,166.42 -170.66,234.42l87.05 -21.96 -59.8 118.8c-47.63,94.19 -50.01,178.59 -48.42,282.05 102.39,3.18 186.8,1.59 282.05,-44.19l118.8 -58.21 -23.02 85.99c69.06,-26.19 165.63,-91.02 237.86,-166.42l282.84 -298.45 -167.22 332.85 1.59 -1.59c116.42,-59.8 291.31,-205.05 354.28,-331.26l13.23 -26.19c22.23,-42.86 44.19,-87.05 36.78,-112.45l-129.38 -145.26 -228.07 -232.04 -144.2 -131.23 0 0 0 0.26 -0.01 0.01zm33.6 -51.59c-59,-32.01 -131.23,12.17 -197.64,44.19 -241.04,114.83 -538.69,582.88 -321.47,478.1 -151.61,139.17 -267.23,376.24 -155.84,348.46 -62.97,123.83 -56.62,227.01 -53.98,363.27l-5.03 4.76 5.03 0 0 5.03 3.97 -5.03c137.05,4.23 239.45,11.38 364.86,-49.21 -30.16,111.65 208.23,-1.59 350.31,-150.81 -108.21,216.43 364.07,-75.41 482.07,-314.06 32.81,-66.41 78.58,-137.85 47.63,-197.64 -173.83,-196.06 -102.66,-120.65 -251.88,-271.46 -149.23,-150.81 -74.61,-78.58 -268.02,-255.85l0 0 0 0.26 -0.01 -0.01z"/>
  <path class="fil3" d="M2765.04 11566.4l-127.26 84.4c-58.21,37.84 -132.03,41.01 -192.62,8.2l0 0c-181.24,-97.63 -332.05,-242.62 -437.09,-419.89 -34.4,-59.8 -34.4,-133.61 1.59,-192.62l78.85 -131.23 676.28 651.14 0 0 0.26 0 -0.01 0z"/>
  <path class="fil4" d="M2700.22 11571.17l-80.43 52.65c-35.19,23.81 -76.99,31.22 -117.21,23.02 -32.01,-17.99 -63.24,-37.84 -93.66,-59 32.81,-1.85 66.41,-11.64 95.25,-30.43l76.99 -50.8c38.63,23.81 78.05,44.98 119.06,64.82l0 -0.26z"/>
  <path class="fil5" d="M2409.18 11587.57c-8.2,1.06 -15.61,0 -23.81,0 -166.42,-100.81 -213.25,-150.02 -349.51,-364.86 -29.37,-49.21 -29.37,-110.6 1.06,-159.81l49.21 -82.02c6.35,11.38 12.17,23.02 18.79,33.6l-17.99 30.43c-36.25,59 -36.25,133.61 -0.79,192.62 65.62,112.45 211.4,272.26 323.06,350.31l0 0 0 -0.26 -0.02 -0.01z"/>
  <path class="fil6" d="M1566.21 10929.29c85.2,-21.43 482.07,-127.26 637.91,33.6l141.82 -383.91c-9,-7.14 -17.99,-13.76 -27.78,-19.58l0 -0.79c-145.26,-91.02 -444.5,-123.03 -754.59,346.87 -2.38,3.18 -3.97,7.41 -6.35,10.58 -5.03,6.61 1.59,14.82 9,13.23l0 0 0 0 -0.01 0z"/>
  <path class="fil7" d="M2063.9 10857.85c-96.84,-21.17 -236.27,-21.17 -437.89,24.61 3.18,-3.97 6.61,-9 10.58,-12.96 93.4,-36.25 232.83,-65.62 337.08,-64.03 40.22,0.79 73.03,-5.82 103.98,-20.64 -6.35,28.84 -10.58,53.45 -13.76,73.03l0.01 -0.01z"/>
  <path class="fil4" d="M2223.7 10986.7c-12.17,11.38 -31.22,9.79 -42.6,-1.59 -52.39,-54.24 -200.03,-129.65 -602.72,-26.46l-3.97 1.85c-16.4,3.97 -32.81,-2.65 -42.6,-15.61 -10.05,-14.02 -10.85,-32.01 -1.85,-46.04 162.45,-249.24 337.87,-391.05 522.55,-420.69 162.19,-26.99 273.05,44.45 313,75.41 14.02,11.64 15.61,31.22 5.03,45.24 -10.58,12.96 -31.22,15.61 -44.19,4.76 -33.6,-26.19 -126.47,-85.99 -263.26,-62.97 -151.87,24.61 -305.86,143.4 -446.88,344.22 373.86,-86.78 537.9,-18.79 610.13,55.83 12.17,13.23 11.38,32.81 -1.06,44.98 -0.79,0.79 -0.79,0.79 -1.59,0.79l0 0.26 0.01 0.02z"/>
  <path class="fil8" d="M3106.88 11311.35c109.8,127.79 200.82,453.5 -299.24,807.77 -6.61,4.76 -15.61,-0.79 -14.02,-9 17.99,-85.46 101.6,-493.71 -65.62,-642.14l378.88 -156.63 0 0z"/>
  <path class="fil6" d="M2807.64 12119.12c-6.61,4.76 -15.61,-0.79 -14.02,-9 9,-43.66 35.98,-172.24 36.78,-307.71 1.06,-127 -20.37,-259.82 -100.81,-332.85 0,-0.79 -0.79,-1.59 -1.59,-1.59l2.38 -0.79 376.5 -155.84c31.22,36.25 60.59,87.84 75.41,150.81 39.42,162.45 -14.82,401.9 -374.65,656.96l0 0 0 0 0 0.01z"/>
  <path class="fil9" d="M3003.43 11686c-39.95,33.6 -87.58,67.2 -141.82,99.22 0,-68.79 -7.41,-137.58 -26.19,-198.44 65.62,-13.76 177.01,-42.6 319.09,-102.39 1.59,7.41 3.18,14.82 3.97,23.02 -35.19,59.8 -85.2,119.59 -155.05,178.59l0 0 0 0z"/>
  <path class="fil4" d="M2931.46 12064.09c-32.81,26.99 -68.26,54.24 -105.83,81.23 -14.02,9.79 -32.01,9.79 -46.04,0 -13.76,-9 -20.37,-25.4 -17.2,-41.8 23.81,-110.86 91.02,-482.07 -55.56,-612.51 -12.44,-11.64 -14.02,-31.22 -1.85,-44.45 11.64,-12.96 31.22,-13.76 44.45,-2.38 148.43,132.82 118,441.06 86.78,614.89 192.09,-146.58 303.48,-304.8 322.26,-458.26 19.05,-146.84 -53.18,-242.62 -75.41,-269.08 -11.38,-12.96 -9.79,-32.81 3.44,-44.98 12.96,-11.38 33.6,-9 44.98,4.23 33.6,39.16 110.6,150.02 90.22,318.03 -19.58,156.63 -117.21,309.03 -290.25,455.08l0 0 0 0 0.01 0z"/>
  <path class="fil6" d="M4731.95 8845.69c0,0 239.45,857.78 -570.71,1825.36 -691.09,823.91 -1396.47,895.35 -1396.47,895.35 -239.18,-104.25 -442.65,-275.43 -585.26,-491.07 -34.4,-51.06 -64.03,-104.25 -91.02,-160.07 0,0 11.38,-174.63 120.39,-440.27 42.86,-104.25 101.07,-222.25 179.65,-349.25 123.83,-198.44 296.86,-418.31 541.07,-639.5 14.02,-12.44 28.05,-24.61 41.8,-36.25 58.21,-51.59 116.42,-99.22 174.89,-142.61 848.52,-637.12 1585.65,-461.7 1585.65,-461.7l0 0 0 0 0.01 0.01z"/>
  <path class="fil10" d="M4595.16 9969.91c-256.65,-380.47 -591.34,-702.73 -981.6,-944.56 463.29,-214.84 845.34,-212.46 1018.38,-194.47 61.65,5.82 110.07,52.65 119.06,113.24 23.55,173.04 41.8,554.3 -155.84,1025.79l0 0z"/>
  <path class="fil11" d="M4720.58 8877.71c-15.61,-19.05 -35.98,-32.81 -59,-41.01 23.02,8.2 43.39,22.23 59,41.01z"/>
  <path class="fil12" d="M4752.59 8961.32c-13.23,-20.64 -32.81,-37.04 -55.03,-47.63 -1.59,-8.2 -2.38,-15.61 -3.97,-23.02l0 0c0,6.61 0,14.02 0,21.43 -12.44,-5.03 -25.4,-8.2 -38.63,-9.79 -160.6,-16.4 -500.86,-19.84 -918.37,150.81 -28.58,-14.02 -57.41,-28.58 -87.58,-43.39 0,0 0,0 0,0 0,0 0,0 -1.06,0 447.94,-199.23 815.18,-196.06 983.99,-178.86 10.05,0.79 20.64,3.44 29.63,5.82 23.02,8.2 43.39,22.23 59,41.01 15.61,18.79 26.19,41.01 30.43,66.41 0.79,5.82 1.59,11.38 1.59,17.2l0 0 0 0.01z"/>
  <path class="fil10" d="M4697.56 8913.69c-1.59,-0.79 -3.18,-1.59 -3.97,-1.59 0,-7.41 0,-14.82 0,-21.17l0 0c1.59,7.14 2.38,14.55 3.97,22.75l0 0 0 0.01zm-960.97 139.44c-3.97,1.59 -8.2,3.18 -13.23,5.03 -24.61,-16.4 -50.01,-32.81 -74.61,-48.42 0,0 0,0 0,0 30.43,14.55 59,29.37 87.84,43.39l0 0z"/>
  <path class="fil4" d="M3679.97 9030.11c358.25,231.25 663.31,524.14 907.79,873.39 168.8,-433.92 155.84,-782.37 131.23,-955.41 -6.61,-45.77 -43.39,-81.23 -89.43,-85.99 -173.83,-17.2 -522.29,-17.99 -949.59,168.01l0 0zm935.57 963.61c-4.76,3.97 -10.58,6.35 -17.2,7.41 -11.38,0.79 -23.02,-4.23 -29.37,-14.02 -255.85,-378.88 -583.14,-693.74 -971.81,-934.77 -9.79,-6.61 -15.61,-17.2 -14.82,-28.84 1.06,-11.38 7.41,-21.96 18.26,-26.99 464.08,-215.64 847.73,-216.43 1035.58,-197.64 75.41,8.2 135.2,65.62 145.79,141.02 26.46,186.27 40.22,569.12 -157.43,1042.19 -1.59,4.23 -4.76,8.2 -9,11.64l0 0z"/>
  <path class="fil4" d="M2769.8 11534.39c37.04,-5.82 199.23,-32.81 423.86,-137.05 236.27,-109.01 591.34,-327.03 942.98,-746.92 180.45,-215.64 323.06,-443.71 423.07,-677.33 -251.62,-368.04 -570.71,-674.69 -947.74,-911.75 -229.66,108.21 -451.91,259.82 -660.93,448.47 -405.87,368.3 -610.92,730.78 -710.14,971.02 -94.99,228.6 -116.42,391.85 -120.39,428.63 68,138.64 159.01,262.47 269.61,369.89 110.86,106.63 238.65,191.82 379.68,255.06l0 0 0 -0.02zm1021.82 -446.88c-219.08,183.62 -420.69,298.45 -574.15,369.09 -264.85,121.18 -441.85,141.02 -449.26,141.82 -5.03,0 -10.58,-0.79 -15.61,-3.44 -150.81,-65.62 -287.87,-156.63 -405.87,-270.4 -118.8,-114.04 -215.64,-246.86 -287.07,-395.29 -1.59,-5.03 -3.18,-9.79 -2.38,-15.61 0,-7.41 12.17,-185.47 123.83,-454.29 102.39,-246.86 311.68,-619.92 727.34,-996.16 218.02,-197.64 450.85,-355.07 691.89,-466.73 10.05,-4.76 21.43,-3.97 30.43,1.59 396.08,246.06 728.93,566.74 990.6,953.82 5.82,8.2 7.41,19.58 3.18,30.16 -102.39,244.48 -250.83,483.92 -439.47,709.35 -132.82,158.22 -266.44,288.66 -393.44,396.08l0 0 0 0 -0.02 0.01z"/>
  <path class="fil4" d="M2785.41 11591.01c-0.79,0.79 -1.59,0.79 -3.18,2.38l-127.26 83.61c-67.2,44.45 -153.99,48.42 -224.63,10.05 -186,-100.28 -341.84,-249.5 -449.26,-431.54 -41.01,-70.38 -40.22,-156.63 1.59,-225.43l78.58 -130.44c9.26,-15.61 28.84,-20.37 43.66,-11.38 14.55,9.79 19.58,28.58 10.58,43.39l-78.58 131.23c-30.43,49.21 -30.43,110.6 -1.06,159.81 101.07,172.24 247.65,313.27 424.13,408.52 50.8,26.99 112.18,24.61 159.81,-7.41l127.79 -83.61c14.82,-9.79 34.66,-5.82 43.66,9 9,14.02 6.35,31.22 -5.82,41.8l0 0 0 0 -0.01 0.02z"/>
  <path class="fil11" d="M2727.21 10945.69c-0.79,0 -2.38,0 -5.82,0 -26.99,0.79 -142.61,9 -253.21,66.41 0,0 0,0 0,0 110.6,-57.41 226.22,-65.62 253.21,-66.41 3.44,0 5.82,0 5.82,0l0 0z"/>
  <path class="fil13" d="M2468.18 11012.1c-30.43,14.82 -60.06,33.6 -87.84,57.41 -11.38,9 -21.17,18.79 -32.01,29.37 0,0 -0.79,0 -0.79,0.79 0,-0.79 0.79,-0.79 0.79,-0.79 10.85,-10.58 20.64,-20.37 32.01,-29.37 27.78,-23.81 57.41,-42.6 87.84,-57.41 0,0 0,0 0,0z"/>
  <path class="fil6" d="M3671.77 10513.63c-149.23,154.78 -395.29,159.01 -550.07,10.58 -155.05,-149.23 -160.07,-396.08 -10.85,-550.33 149.23,-154.78 395.29,-159.81 550.33,-11.38 155.05,149.23 159.81,396.08 10.58,551.13l0.01 0z"/>
  <path class="fil14" d="M3620.97 10517.6c-62.18,52.39 -140.23,82.02 -222.25,83.61 -6.61,0 -12.17,0 -17.99,0 15.61,-22.23 26.19,-45.77 33.6,-70.38 65.62,-11.64 128.06,-40.22 181.24,-85.46 10.58,-8.2 21.43,-17.99 31.22,-28.58 73.03,-75.41 109.01,-174.63 108.21,-272.26 9,29.63 14.02,60.59 14.02,91.81 1.59,96.04 -33.87,186.27 -99.22,255.06 -10.05,9.79 -19.05,17.99 -28.84,26.19l0 0 0 0 0.01 0.01z"/>
  <path class="fil4" d="M3162.71 9969.11c-10.85,8.2 -19.84,17.2 -28.84,26.19 -66.41,68.79 -101.6,159.01 -100.01,255.06 1.59,94.99 41.01,184.41 109.8,250.83 69.06,66.41 159.28,101.6 255.06,100.01 95.25,-2.38 184.68,-41.01 250.83,-109.8 65.62,-68.79 101.07,-159.01 99.22,-255.06 -1.59,-94.99 -39.95,-184.41 -109.8,-250.83 -68,-65.62 -159.01,-101.86 -254.26,-100.01 -82.81,1.59 -160.6,30.96 -222.25,83.61l0.26 0 -0.01 0zm498.48 596.9c-73.03,61.38 -164.84,96.84 -261.67,98.43 -112.18,1.59 -218.81,-40.22 -300.04,-117.21 -81.23,-78.85 -126.21,-182.83 -128.59,-296.07 -2.65,-112.45 39.16,-219.08 117.21,-299.24 77.79,-81.23 182.83,-127.26 295.01,-128.85 112.45,-2.38 219.08,39.42 300.3,117.21 80.96,78.05 127,182.83 128.59,295.28 2.65,112.18 -39.42,218.81 -117.21,299.24 -10.58,11.38 -22.23,22.23 -33.6,31.22l0 0 0 -0.01z"/>
  <path class="fil12" d="M3570.17 10408.59c-95.25,98.43 -251.62,101.6 -350.04,6.61 -98.43,-94.46 -101.86,-251.09 -7.41,-350.31 94.99,-98.43 251.62,-101.6 350.04,-6.35 99.22,94.99 101.6,251.62 7.41,350.04l0 0.01z"/>
  <path class="fil15" d="M3529.95 10402.77c-31.22,25.4 -68,41.8 -107.42,47.63 -0.79,-3.44 -0.79,-7.41 -1.59,-10.58 -0.79,-10.05 -2.38,-19.05 -5.03,-28.84 32.81,-9 63.24,-25.4 89.43,-47.63 7.41,-5.56 14.02,-11.38 19.84,-17.99 49.21,-50.8 71.97,-118 68.79,-183.62 8.2,22.23 12.96,46.04 13.76,71.44 1.06,57.41 -20.37,111.39 -60.59,153.19l0 0c-5.82,5.82 -11.38,10.85 -17.2,16.4l0 0 0 0 0.01 0z"/>
  <path class="fil5" d="M3549.53 10090.29c-85.2,-41.01 -190.24,-29.37 -264.85,33.87 -6.35,5.56 -12.96,11.38 -19.58,17.99 -14.82,15.61 -26.99,31.75 -36.78,49.21 -14.82,-7.41 -29.63,-14.02 -42.86,-19.05 9.26,-31.75 26.46,-60.59 50.01,-85.2 5.82,-5.82 11.64,-10.58 17.46,-15.61 83.61,-70.38 208.23,-67.2 288.4,9.79 2.65,2.65 5.82,5.82 8.2,9l0 0 0 0z"/>
  <path class="fil4" d="M3252.93 10071.51c-5.82,5.03 -11.64,9.79 -17.46,15.61 -39.95,41.8 -61.38,96.04 -59.8,154.25 0.79,57.41 24.61,111.39 65.62,150.81 41.8,40.22 96.84,61.38 154.25,60.59 57.41,-0.79 111.39,-24.61 151.61,-66.41l0 0c40.22,-41.8 61.65,-95.78 60.59,-153.19 -1.59,-58.21 -25.4,-112.45 -66.41,-151.87 -80.17,-76.99 -204.79,-80.17 -288.4,-9.79l0 0zm317.24 379.68c-48.42,41.01 -109.01,64.03 -173.04,64.82 -74.61,1.59 -145.26,-26.19 -199.23,-78.05 -54.24,-51.59 -84.4,-121.18 -85.2,-195.79 -1.59,-74.61 25.4,-145.26 77.79,-198.44 106.63,-111.65 283.63,-114.83 394.49,-8.2 110.6,106.63 114.83,283.63 7.41,395.29l0 0c-6.61,7.14 -14.02,13.76 -22.23,20.37l0 0 0.01 0z"/>
 </g>
</svg>